<?xml version="1.0" encoding="UTF-8" standalone="no"?>
<!DOCTYPE svg PUBLIC "-//W3C//DTD SVG 1.1//EN"
 "http://www.w3.org/Graphics/SVG/1.1/DTD/svg11.dtd">
<!-- Generated by graphviz version 2.40.1 (20161225.0304)
 -->
<!-- Title: G Pages: 1 -->
<svg width="720pt" height="629pt"
 viewBox="0.00 0.00 719.90 629.00" xmlns="http://www.w3.org/2000/svg" xmlns:xlink="http://www.w3.org/1999/xlink">
<g id="graph0" class="graph" transform="scale(1 1) rotate(0) translate(4 625)">
<title>G</title>
<polygon fill="#ffffff" stroke="transparent" points="-4,4 -4,-625 715.9015,-625 715.9015,4 -4,4"/>
<!-- A0 -->
<g id="node1" class="node">
<title>A0</title>
<ellipse fill="none" stroke="#000000" cx="235.95" cy="-610" rx="11" ry="11"/>
</g>
<!-- A1 -->
<g id="node2" class="node">
<title>A1</title>
<path fill="none" stroke="#000000" d="M69.8501,-497C69.8501,-497 12.0499,-497 12.0499,-497 6.0499,-497 .0499,-491 .0499,-485 .0499,-485 .0499,-473 .0499,-473 .0499,-467 6.0499,-461 12.0499,-461 12.0499,-461 69.8501,-461 69.8501,-461 75.8501,-461 81.8501,-467 81.8501,-473 81.8501,-473 81.8501,-485 81.8501,-485 81.8501,-491 75.8501,-497 69.8501,-497"/>
<text text-anchor="middle" x="40.95" y="-476" font-family="Helvetica,sans-Serif" font-size="10.00" fill="#000000">run&#45;runbook</text>
</g>
<!-- A0&#45;&gt;A1 -->
<g id="edge1" class="edge">
<title>A0&#45;&gt;A1</title>
<path fill="none" stroke="#000000" d="M224.777,-608.8259C205.17,-606.3471 163.8538,-599.2264 134.37,-581 103.0369,-561.6303 75.7104,-528.8488 58.8397,-505.6841"/>
<polygon fill="#000000" stroke="#000000" points="52.8993,-497.3248 62.3601,-502.8695 55.7956,-501.4005 58.692,-505.4762 58.692,-505.4762 58.692,-505.4762 55.7956,-501.4005 55.0239,-508.0829 52.8993,-497.3248 52.8993,-497.3248"/>
<text text-anchor="middle" x="164.24" y="-572" font-family="Helvetica,sans-Serif" font-size="10.00" fill="#000000">update_creds</text>
</g>
<!-- A2 -->
<g id="node3" class="node">
<title>A2</title>
<path fill="none" stroke="#000000" d="M318.1148,-551C318.1148,-551 267.7852,-551 267.7852,-551 261.7852,-551 255.7852,-545 255.7852,-539 255.7852,-539 255.7852,-527 255.7852,-527 255.7852,-521 261.7852,-515 267.7852,-515 267.7852,-515 318.1148,-515 318.1148,-515 324.1148,-515 330.1148,-521 330.1148,-527 330.1148,-527 330.1148,-539 330.1148,-539 330.1148,-545 324.1148,-551 318.1148,-551"/>
<text text-anchor="middle" x="292.95" y="-530" font-family="Helvetica,sans-Serif" font-size="10.00" fill="#000000">list&#45;checks</text>
</g>
<!-- A0&#45;&gt;A2 -->
<g id="edge2" class="edge">
<title>A0&#45;&gt;A2</title>
<path fill="none" stroke="#000000" d="M244.4921,-602.9462C250.8806,-597.4011 259.5761,-589.2575 265.95,-581 270.8502,-574.6518 275.4377,-567.3107 279.3915,-560.309"/>
<polygon fill="#000000" stroke="#000000" points="284.36,-551.0964 283.5738,-562.0341 281.9866,-555.4972 279.6131,-559.898 279.6131,-559.898 279.6131,-559.898 281.9866,-555.4972 275.6524,-557.7619 284.36,-551.0964 284.36,-551.0964"/>
<text text-anchor="middle" x="303.24" y="-572" font-family="Helvetica,sans-Serif" font-size="10.00" fill="#000000">update_creds</text>
</g>
<!-- A10 -->
<g id="node11" class="node">
<title>A10</title>
<path fill="none" stroke="#000000" d="M564.7253,-551C564.7253,-551 493.1747,-551 493.1747,-551 487.1747,-551 481.1747,-545 481.1747,-539 481.1747,-539 481.1747,-527 481.1747,-527 481.1747,-521 487.1747,-515 493.1747,-515 493.1747,-515 564.7253,-515 564.7253,-515 570.7253,-515 576.7253,-521 576.7253,-527 576.7253,-527 576.7253,-539 576.7253,-539 576.7253,-545 570.7253,-551 564.7253,-551"/>
<text text-anchor="middle" x="528.95" y="-530" font-family="Helvetica,sans-Serif" font-size="10.00" fill="#000000">show&#45;audit&#45;trail</text>
</g>
<!-- A0&#45;&gt;A10 -->
<g id="edge10" class="edge">
<title>A0&#45;&gt;A10</title>
<path fill="none" stroke="#000000" d="M246.7255,-607.1682C282.5689,-597.7486 399.564,-567.0025 471.178,-548.1824"/>
<polygon fill="#000000" stroke="#000000" points="480.9687,-545.6094 472.4409,-552.5034 476.1329,-546.8803 471.2971,-548.1512 471.2971,-548.1512 471.2971,-548.1512 476.1329,-546.8803 470.1533,-543.799 480.9687,-545.6094 480.9687,-545.6094"/>
<text text-anchor="middle" x="421.24" y="-572" font-family="Helvetica,sans-Serif" font-size="10.00" fill="#000000">update_creds</text>
</g>
<!-- A17 -->
<g id="node18" class="node">
<title>A17</title>
<path fill="none" stroke="#000000" d="M215.3441,-551C215.3441,-551 162.5559,-551 162.5559,-551 156.5559,-551 150.5559,-545 150.5559,-539 150.5559,-539 150.5559,-527 150.5559,-527 150.5559,-521 156.5559,-515 162.5559,-515 162.5559,-515 215.3441,-515 215.3441,-515 221.3441,-515 227.3441,-521 227.3441,-527 227.3441,-527 227.3441,-539 227.3441,-539 227.3441,-545 221.3441,-551 215.3441,-551"/>
<text text-anchor="middle" x="188.95" y="-530" font-family="Helvetica,sans-Serif" font-size="10.00" fill="#000000">run&#45;checks</text>
</g>
<!-- A0&#45;&gt;A17 -->
<g id="edge21" class="edge">
<title>A0&#45;&gt;A17</title>
<path fill="none" stroke="#000000" d="M227.0607,-603.5175C220.2761,-598.1575 211.1414,-589.9891 205.37,-581 201.4696,-574.925 198.3835,-567.8192 195.9902,-560.9656"/>
<polygon fill="#000000" stroke="#000000" points="192.9652,-551.2542 200.2356,-559.4634 194.4522,-556.028 195.9392,-560.8017 195.9392,-560.8017 195.9392,-560.8017 194.4522,-556.028 191.6428,-562.1401 192.9652,-551.2542 192.9652,-551.2542"/>
<text text-anchor="middle" x="235.24" y="-572" font-family="Helvetica,sans-Serif" font-size="10.00" fill="#000000">update_creds</text>
</g>
<!-- A5 -->
<g id="node6" class="node">
<title>A5</title>
<path fill="none" stroke="#000000" d="M149.962,-370C149.962,-370 95.938,-370 95.938,-370 89.938,-370 83.938,-364 83.938,-358 83.938,-358 83.938,-346 83.938,-346 83.938,-340 89.938,-334 95.938,-334 95.938,-334 149.962,-334 149.962,-334 155.962,-334 161.962,-340 161.962,-346 161.962,-346 161.962,-358 161.962,-358 161.962,-364 155.962,-370 149.962,-370"/>
<text text-anchor="middle" x="122.95" y="-349" font-family="Helvetica,sans-Serif" font-size="10.00" fill="#000000">read_creds</text>
</g>
<!-- A1&#45;&gt;A5 -->
<g id="edge5" class="edge">
<title>A1&#45;&gt;A5</title>
<path fill="none" stroke="#000000" d="M32.538,-460.9639C26.7164,-445.6467 21.5478,-423.5752 30.95,-407 40.5561,-390.0653 57.677,-377.7862 74.5657,-369.1858"/>
<polygon fill="#000000" stroke="#000000" points="83.8753,-364.7801 76.7613,-373.1253 79.3558,-366.919 74.8363,-369.0578 74.8363,-369.0578 74.8363,-369.0578 79.3558,-366.919 72.9114,-364.9903 83.8753,-364.7801 83.8753,-364.7801"/>
</g>
<!-- A3 -->
<g id="node4" class="node">
<title>A3</title>
<path fill="none" stroke="#000000" d="M307.95,-443C307.95,-443 277.95,-443 277.95,-443 271.95,-443 265.95,-437 265.95,-431 265.95,-431 265.95,-419 265.95,-419 265.95,-413 271.95,-407 277.95,-407 277.95,-407 307.95,-407 307.95,-407 313.95,-407 319.95,-413 319.95,-419 319.95,-419 319.95,-431 319.95,-431 319.95,-437 313.95,-443 307.95,-443"/>
<text text-anchor="middle" x="292.95" y="-422" font-family="Helvetica,sans-Serif" font-size="10.00" fill="#000000">all</text>
</g>
<!-- A2&#45;&gt;A3 -->
<g id="edge3" class="edge">
<title>A2&#45;&gt;A3</title>
<path fill="none" stroke="#000000" d="M292.95,-514.6793C292.95,-497.821 292.95,-472.5651 292.95,-453.147"/>
<polygon fill="#000000" stroke="#000000" points="292.95,-443.0502 297.4501,-453.0501 292.95,-448.0502 292.9501,-453.0502 292.9501,-453.0502 292.9501,-453.0502 292.95,-448.0502 288.4501,-453.0502 292.95,-443.0502 292.95,-443.0502"/>
</g>
<!-- A4 -->
<g id="node5" class="node">
<title>A4</title>
<path fill="none" stroke="#000000" d="M402.3531,-443C402.3531,-443 349.5469,-443 349.5469,-443 343.5469,-443 337.5469,-437 337.5469,-431 337.5469,-431 337.5469,-419 337.5469,-419 337.5469,-413 343.5469,-407 349.5469,-407 349.5469,-407 402.3531,-407 402.3531,-407 408.3531,-407 414.3531,-413 414.3531,-419 414.3531,-419 414.3531,-431 414.3531,-431 414.3531,-437 408.3531,-443 402.3531,-443"/>
<text text-anchor="middle" x="375.95" y="-422" font-family="Helvetica,sans-Serif" font-size="10.00" fill="#000000">connectors</text>
</g>
<!-- A2&#45;&gt;A4 -->
<g id="edge4" class="edge">
<title>A2&#45;&gt;A4</title>
<path fill="none" stroke="#000000" d="M307.0298,-514.6793C320.4656,-497.1966 340.8419,-470.6828 355.9576,-451.0142"/>
<polygon fill="#000000" stroke="#000000" points="362.0781,-443.0502 359.5526,-453.7213 359.0313,-447.0147 355.9845,-450.9791 355.9845,-450.9791 355.9845,-450.9791 359.0313,-447.0147 352.4165,-448.237 362.0781,-443.0502 362.0781,-443.0502"/>
</g>
<!-- A14 -->
<g id="node15" class="node">
<title>A14</title>
<polygon fill="#d3d3d3" stroke="#000000" stroke-width="4" points="316.95,-350 316.95,-354 352.95,-354 352.95,-350 316.95,-350"/>
<text text-anchor="middle" x="325.589" y="-351.7" font-family="Helvetica,sans-Serif" font-size="1.00" fill="#000000"> </text>
<polyline fill="none" stroke="#000000" stroke-width="4" points="334.2279,-350 334.2279,-354 "/>
<text text-anchor="middle" x="343.3669" y="-351.7" font-family="Helvetica,sans-Serif" font-size="1.00" fill="#000000"> </text>
</g>
<!-- A3&#45;&gt;A14 -->
<g id="edge14" class="edge">
<title>A3&#45;&gt;A14:n</title>
<path fill="none" stroke="#000000" d="M306.7538,-406.7838C314.1717,-395.5061 322.337,-380.2004 325.0319,-364.4095"/>
<polygon fill="#000000" stroke="#000000" points="325.95,-354 329.5539,-364.3567 325.5107,-358.9807 325.0713,-363.9613 325.0713,-363.9613 325.0713,-363.9613 325.5107,-358.9807 320.5887,-363.5659 325.95,-354 325.95,-354"/>
</g>
<!-- A4&#45;&gt;A14 -->
<g id="edge16" class="edge">
<title>A4&#45;&gt;A14:n</title>
<path fill="none" stroke="#000000" d="M362.1462,-406.7838C354.7283,-395.5061 346.563,-380.2004 343.8681,-364.4095"/>
<polygon fill="#000000" stroke="#000000" points="342.95,-354 348.3113,-363.5659 343.3893,-358.9807 343.8287,-363.9613 343.8287,-363.9613 343.8287,-363.9613 343.3893,-358.9807 339.3461,-364.3567 342.95,-354 342.95,-354"/>
</g>
<!-- A6 -->
<g id="node7" class="node">
<title>A6</title>
<path fill="none" stroke="#000000" d="M110.1484,-297C110.1484,-297 29.7516,-297 29.7516,-297 23.7516,-297 17.7516,-291 17.7516,-285 17.7516,-285 17.7516,-273 17.7516,-273 17.7516,-267 23.7516,-261 29.7516,-261 29.7516,-261 110.1484,-261 110.1484,-261 116.1484,-261 122.1484,-267 122.1484,-273 122.1484,-273 122.1484,-285 122.1484,-285 122.1484,-291 116.1484,-297 110.1484,-297"/>
<text text-anchor="middle" x="69.95" y="-276" font-family="Helvetica,sans-Serif" font-size="10.00" fill="#000000">execute_runbook</text>
</g>
<!-- A5&#45;&gt;A6 -->
<g id="edge6" class="edge">
<title>A5&#45;&gt;A6</title>
<path fill="none" stroke="#000000" d="M109.8489,-333.9551C103.606,-325.3564 96.0168,-314.9034 89.1401,-305.4316"/>
<polygon fill="#000000" stroke="#000000" points="83.0841,-297.0904 92.6007,-302.5387 86.0217,-301.1364 88.9593,-305.1825 88.9593,-305.1825 88.9593,-305.1825 86.0217,-301.1364 85.3178,-307.8264 83.0841,-297.0904 83.0841,-297.0904"/>
</g>
<!-- A19 -->
<g id="node20" class="node">
<title>A19</title>
<path fill="none" stroke="#000000" d="M202.0741,-297C202.0741,-297 151.8259,-297 151.8259,-297 145.8259,-297 139.8259,-291 139.8259,-285 139.8259,-285 139.8259,-273 139.8259,-273 139.8259,-267 145.8259,-261 151.8259,-261 151.8259,-261 202.0741,-261 202.0741,-261 208.0741,-261 214.0741,-267 214.0741,-273 214.0741,-273 214.0741,-285 214.0741,-285 214.0741,-291 208.0741,-297 202.0741,-297"/>
<text text-anchor="middle" x="176.95" y="-276" font-family="Helvetica,sans-Serif" font-size="10.00" fill="#000000">run_check</text>
</g>
<!-- A5&#45;&gt;A19 -->
<g id="edge24" class="edge">
<title>A5&#45;&gt;A19</title>
<path fill="none" stroke="#000000" d="M130.3826,-333.9551C136.0052,-325.1809 143.7332,-314.4759 151.3379,-304.853"/>
<polygon fill="#000000" stroke="#000000" points="157.6479,-297.0904 154.8321,-307.6886 154.494,-300.9702 151.3402,-304.8501 151.3402,-304.8501 151.3402,-304.8501 154.494,-300.9702 147.8483,-302.0117 157.6479,-297.0904 157.6479,-297.0904"/>
</g>
<!-- A5&#45;&gt;A19 -->
<g id="edge30" class="edge">
<title>A5&#45;&gt;A19</title>
<path fill="none" stroke="#000000" d="M142.214,-333.9551C149.4252,-325.3564 157.3578,-314.9034 163.9142,-305.4316"/>
<polygon fill="#000000" stroke="#000000" points="169.4883,-297.0904 167.6736,-307.9051 166.7102,-301.2476 163.9321,-305.4048 163.9321,-305.4048 163.9321,-305.4048 166.7102,-301.2476 160.1906,-302.9045 169.4883,-297.0904 169.4883,-297.0904"/>
</g>
<!-- A7 -->
<g id="node8" class="node">
<title>A7</title>
<polygon fill="#d3d3d3" stroke="#000000" stroke-width="4" points="51.95,-219.5 51.95,-223.5 87.95,-223.5 87.95,-219.5 51.95,-219.5"/>
<text text-anchor="middle" x="69.5889" y="-221.2" font-family="Helvetica,sans-Serif" font-size="1.00" fill="#000000"> </text>
</g>
<!-- A6&#45;&gt;A7 -->
<g id="edge7" class="edge">
<title>A6&#45;&gt;A7:n</title>
<path fill="none" stroke="#000000" d="M69.95,-260.5C69.95,-252.5749 69.95,-242.9869 69.95,-233.5678"/>
<polygon fill="#000000" stroke="#000000" points="69.95,-223.5 74.4501,-233.5 69.95,-228.5 69.9501,-233.5 69.9501,-233.5 69.9501,-233.5 69.95,-228.5 65.4501,-233.5 69.95,-223.5 69.95,-223.5"/>
</g>
<!-- A8 -->
<g id="node9" class="node">
<title>A8</title>
<path fill="none" stroke="#000000" d="M122.0407,-182C122.0407,-182 17.8593,-182 17.8593,-182 11.8593,-182 5.8593,-176 5.8593,-170 5.8593,-170 5.8593,-158 5.8593,-158 5.8593,-152 11.8593,-146 17.8593,-146 17.8593,-146 122.0407,-146 122.0407,-146 128.0407,-146 134.0407,-152 134.0407,-158 134.0407,-158 134.0407,-170 134.0407,-170 134.0407,-176 128.0407,-182 122.0407,-182"/>
<text text-anchor="middle" x="69.95" y="-161" font-family="Helvetica,sans-Serif" font-size="10.00" fill="#000000">update_execution_trail</text>
</g>
<!-- A7&#45;&gt;A8 -->
<g id="edge8" class="edge">
<title>A7&#45;&gt;A8</title>
<path fill="none" stroke="#000000" d="M69.95,-219.0293C69.95,-214.2727 69.95,-203.3488 69.95,-192.4769"/>
<polygon fill="#000000" stroke="#000000" points="69.95,-182.2724 74.4501,-192.2723 69.95,-187.2724 69.9501,-192.2724 69.9501,-192.2724 69.9501,-192.2724 69.95,-187.2724 65.4501,-192.2724 69.95,-182.2724 69.95,-182.2724"/>
</g>
<!-- A9 -->
<g id="node10" class="node">
<title>A9</title>
<path fill="none" stroke="#000000" d="M259.923,-109C259.923,-109 175.977,-109 175.977,-109 169.977,-109 163.977,-103 163.977,-97 163.977,-97 163.977,-85 163.977,-85 163.977,-79 169.977,-73 175.977,-73 175.977,-73 259.923,-73 259.923,-73 265.923,-73 271.923,-79 271.923,-85 271.923,-85 271.923,-97 271.923,-97 271.923,-103 265.923,-109 259.923,-109"/>
<text text-anchor="middle" x="217.95" y="-88" font-family="Helvetica,sans-Serif" font-size="10.00" fill="#000000">update_audit_trial</text>
</g>
<!-- A8&#45;&gt;A9 -->
<g id="edge9" class="edge">
<title>A8&#45;&gt;A9</title>
<path fill="none" stroke="#000000" d="M106.5343,-145.9551C126.3687,-136.1719 151.0697,-123.9883 172.1702,-113.5806"/>
<polygon fill="#000000" stroke="#000000" points="181.2737,-109.0904 174.2959,-117.5498 176.7895,-111.3022 172.3053,-113.514 172.3053,-113.514 172.3053,-113.514 176.7895,-111.3022 170.3146,-109.4782 181.2737,-109.0904 181.2737,-109.0904"/>
</g>
<!-- A15 -->
<g id="node16" class="node">
<title>A15</title>
<path fill="none" stroke="#000000" d="M349.95,-36C349.95,-36 319.95,-36 319.95,-36 313.95,-36 307.95,-30 307.95,-24 307.95,-24 307.95,-12 307.95,-12 307.95,-6 313.95,0 319.95,0 319.95,0 349.95,0 349.95,0 355.95,0 361.95,-6 361.95,-12 361.95,-12 361.95,-24 361.95,-24 361.95,-30 355.95,-36 349.95,-36"/>
<text text-anchor="middle" x="334.95" y="-15" font-family="Helvetica,sans-Serif" font-size="10.00" fill="#000000">stop</text>
</g>
<!-- A9&#45;&gt;A15 -->
<g id="edge32" class="edge">
<title>A9&#45;&gt;A15</title>
<path fill="none" stroke="#000000" d="M246.8714,-72.9551C262.5158,-63.194 281.9902,-51.0433 298.6461,-40.6512"/>
<polygon fill="#000000" stroke="#000000" points="307.5672,-35.085 301.4652,-44.1964 303.3251,-37.7318 299.0831,-40.3785 299.0831,-40.3785 299.0831,-40.3785 303.3251,-37.7318 296.701,-36.5607 307.5672,-35.085 307.5672,-35.085"/>
</g>
<!-- A11 -->
<g id="node12" class="node">
<title>A11</title>
<path fill="none" stroke="#000000" d="M509.6296,-443C509.6296,-443 444.2704,-443 444.2704,-443 438.2704,-443 432.2704,-437 432.2704,-431 432.2704,-431 432.2704,-419 432.2704,-419 432.2704,-413 438.2704,-407 444.2704,-407 444.2704,-407 509.6296,-407 509.6296,-407 515.6296,-407 521.6296,-413 521.6296,-419 521.6296,-419 521.6296,-431 521.6296,-431 521.6296,-437 515.6296,-443 509.6296,-443"/>
<text text-anchor="middle" x="476.95" y="-422" font-family="Helvetica,sans-Serif" font-size="10.00" fill="#000000">all:connectors</text>
</g>
<!-- A10&#45;&gt;A11 -->
<g id="edge11" class="edge">
<title>A10&#45;&gt;A11</title>
<path fill="none" stroke="#000000" d="M520.1289,-514.6793C511.8616,-497.5088 499.4,-471.6268 489.9858,-452.0743"/>
<polygon fill="#000000" stroke="#000000" points="485.6408,-443.0502 494.0335,-450.108 487.8099,-447.5552 489.979,-452.0602 489.979,-452.0602 489.979,-452.0602 487.8099,-447.5552 485.9245,-454.0124 485.6408,-443.0502 485.6408,-443.0502"/>
</g>
<!-- A12 -->
<g id="node13" class="node">
<title>A12</title>
<path fill="none" stroke="#000000" d="M609.8501,-443C609.8501,-443 552.0499,-443 552.0499,-443 546.0499,-443 540.0499,-437 540.0499,-431 540.0499,-431 540.0499,-419 540.0499,-419 540.0499,-413 546.0499,-407 552.0499,-407 552.0499,-407 609.8501,-407 609.8501,-407 615.8501,-407 621.8501,-413 621.8501,-419 621.8501,-419 621.8501,-431 621.8501,-431 621.8501,-437 615.8501,-443 609.8501,-443"/>
<text text-anchor="middle" x="580.95" y="-422" font-family="Helvetica,sans-Serif" font-size="10.00" fill="#000000">execution&#45;id</text>
</g>
<!-- A10&#45;&gt;A12 -->
<g id="edge12" class="edge">
<title>A10&#45;&gt;A12</title>
<path fill="none" stroke="#000000" d="M537.7711,-514.6793C546.0384,-497.5088 558.5,-471.6268 567.9142,-452.0743"/>
<polygon fill="#000000" stroke="#000000" points="572.2592,-443.0502 571.9755,-454.0124 570.0901,-447.5552 567.921,-452.0602 567.921,-452.0602 567.921,-452.0602 570.0901,-447.5552 563.8665,-450.108 572.2592,-443.0502 572.2592,-443.0502"/>
</g>
<!-- A13 -->
<g id="node14" class="node">
<title>A13</title>
<path fill="none" stroke="#000000" d="M699.8531,-443C699.8531,-443 652.0469,-443 652.0469,-443 646.0469,-443 640.0469,-437 640.0469,-431 640.0469,-431 640.0469,-419 640.0469,-419 640.0469,-413 646.0469,-407 652.0469,-407 652.0469,-407 699.8531,-407 699.8531,-407 705.8531,-407 711.8531,-413 711.8531,-419 711.8531,-419 711.8531,-431 711.8531,-431 711.8531,-437 705.8531,-443 699.8531,-443"/>
<text text-anchor="middle" x="675.95" y="-422" font-family="Helvetica,sans-Serif" font-size="10.00" fill="#000000">connector</text>
</g>
<!-- A10&#45;&gt;A13 -->
<g id="edge13" class="edge">
<title>A10&#45;&gt;A13</title>
<path fill="none" stroke="#000000" d="M553.5545,-514.9232C578.0399,-496.9339 615.7749,-469.2103 642.8717,-449.3024"/>
<polygon fill="#000000" stroke="#000000" points="651.2652,-443.1357 645.8708,-452.683 647.2358,-446.0961 643.2064,-449.0565 643.2064,-449.0565 643.2064,-449.0565 647.2358,-446.0961 640.542,-445.4301 651.2652,-443.1357 651.2652,-443.1357"/>
</g>
<!-- A16 -->
<g id="node17" class="node">
<title>A16</title>
<polygon fill="#d3d3d3" stroke="#000000" stroke-width="4" points="497.95,-350 497.95,-354 533.95,-354 533.95,-350 497.95,-350"/>
<text text-anchor="middle" x="503.589" y="-351.7" font-family="Helvetica,sans-Serif" font-size="1.00" fill="#000000"> </text>
<polyline fill="none" stroke="#000000" stroke-width="4" points="509.2279,-350 509.2279,-354 "/>
<text text-anchor="middle" x="515.3669" y="-351.7" font-family="Helvetica,sans-Serif" font-size="1.00" fill="#000000"> </text>
<polyline fill="none" stroke="#000000" stroke-width="4" points="521.5058,-350 521.5058,-354 "/>
<text text-anchor="middle" x="527.6448" y="-351.7" font-family="Helvetica,sans-Serif" font-size="1.00" fill="#000000"> </text>
</g>
<!-- A11&#45;&gt;A16 -->
<g id="edge17" class="edge">
<title>A11&#45;&gt;A16:n</title>
<path fill="none" stroke="#000000" d="M488.0878,-406.7347C494.1889,-395.3057 500.9542,-379.8315 503.1886,-364.2298"/>
<polygon fill="#000000" stroke="#000000" points="503.95,-354 507.6952,-364.3065 503.5788,-358.9862 503.2076,-363.9724 503.2076,-363.9724 503.2076,-363.9724 503.5788,-358.9862 498.72,-363.6383 503.95,-354 503.95,-354"/>
</g>
<!-- A12&#45;&gt;A16 -->
<g id="edge19" class="edge">
<title>A12&#45;&gt;A16:n</title>
<path fill="none" stroke="#000000" d="M549.4964,-406.7997C535.1535,-396.3353 520.4202,-381.7559 516.1662,-364.1113"/>
<polygon fill="#000000" stroke="#000000" points="514.95,-354 520.6121,-363.391 515.5471,-358.9642 516.1443,-363.9284 516.1443,-363.9284 516.1443,-363.9284 515.5471,-358.9642 511.6765,-364.4659 514.95,-354 514.95,-354"/>
</g>
<!-- A13&#45;&gt;A16 -->
<g id="edge20" class="edge">
<title>A13&#45;&gt;A16:n</title>
<path fill="none" stroke="#000000" d="M639.7451,-409.5571C604.8299,-394.4471 554.5698,-372.0641 535.5923,-360.4669"/>
<polygon fill="#000000" stroke="#000000" points="527.95,-354 538.4906,-357.0245 531.7669,-357.2298 535.5837,-360.4597 535.5837,-360.4597 535.5837,-360.4597 531.7669,-357.2298 532.6769,-363.8948 527.95,-354 527.95,-354"/>
</g>
<!-- A14&#45;&gt;A15 -->
<g id="edge15" class="edge">
<title>A14&#45;&gt;A15</title>
<path fill="none" stroke="#000000" d="M334.95,-349.9679C334.95,-341.3705 334.95,-307.1354 334.95,-279 334.95,-279 334.95,-279 334.95,-91 334.95,-76.2996 334.95,-59.934 334.95,-46.4302"/>
<polygon fill="#000000" stroke="#000000" points="334.95,-36.3003 339.4501,-46.3003 334.95,-41.3003 334.9501,-46.3003 334.9501,-46.3003 334.9501,-46.3003 334.95,-41.3003 330.4501,-46.3004 334.95,-36.3003 334.95,-36.3003"/>
</g>
<!-- A16&#45;&gt;A15 -->
<g id="edge18" class="edge">
<title>A16&#45;&gt;A15</title>
<path fill="none" stroke="#000000" d="M509.6363,-349.9964C490.1012,-343.3611 431.95,-320.1533 431.95,-279 431.95,-279 431.95,-279 431.95,-91 431.95,-59.5146 398.9195,-39.9173 371.4078,-29.0551"/>
<polygon fill="#000000" stroke="#000000" points="361.9699,-25.5721 372.9095,-24.8127 366.6607,-27.3032 371.3515,-29.0344 371.3515,-29.0344 371.3515,-29.0344 366.6607,-27.3032 369.7934,-33.256 361.9699,-25.5721 361.9699,-25.5721"/>
</g>
<!-- A18 -->
<g id="node19" class="node">
<title>A18</title>
<path fill="none" stroke="#000000" d="M99.8441,-443C99.8441,-443 52.0559,-443 52.0559,-443 46.0559,-443 40.0559,-437 40.0559,-431 40.0559,-431 40.0559,-419 40.0559,-419 40.0559,-413 46.0559,-407 52.0559,-407 52.0559,-407 99.8441,-407 99.8441,-407 105.8441,-407 111.8441,-413 111.8441,-419 111.8441,-419 111.8441,-431 111.8441,-431 111.8441,-437 105.8441,-443 99.8441,-443"/>
<text text-anchor="middle" x="75.95" y="-422" font-family="Helvetica,sans-Serif" font-size="10.00" fill="#000000">all:checks</text>
</g>
<!-- A17&#45;&gt;A18 -->
<g id="edge22" class="edge">
<title>A17&#45;&gt;A18</title>
<path fill="none" stroke="#000000" d="M170.0363,-514.9232C151.4587,-497.1676 122.9588,-469.9287 102.1932,-450.082"/>
<polygon fill="#000000" stroke="#000000" points="94.9254,-443.1357 105.2638,-446.7919 98.54,-446.5904 102.1546,-450.0451 102.1546,-450.0451 102.1546,-450.0451 98.54,-446.5904 99.0454,-453.2982 94.9254,-443.1357 94.9254,-443.1357"/>
</g>
<!-- A22 -->
<g id="node23" class="node">
<title>A22</title>
<path fill="none" stroke="#000000" d="M236.0268,-443C236.0268,-443 141.8732,-443 141.8732,-443 135.8732,-443 129.8732,-437 129.8732,-431 129.8732,-431 129.8732,-419 129.8732,-419 129.8732,-413 135.8732,-407 141.8732,-407 141.8732,-407 236.0268,-407 236.0268,-407 242.0268,-407 248.0268,-413 248.0268,-419 248.0268,-419 248.0268,-431 248.0268,-431 248.0268,-437 242.0268,-443 236.0268,-443"/>
<text text-anchor="middle" x="188.95" y="-422" font-family="Helvetica,sans-Serif" font-size="10.00" fill="#000000">all:connector:checks</text>
</g>
<!-- A17&#45;&gt;A22 -->
<g id="edge28" class="edge">
<title>A17&#45;&gt;A22</title>
<path fill="none" stroke="#000000" d="M188.95,-514.6793C188.95,-497.821 188.95,-472.5651 188.95,-453.147"/>
<polygon fill="#000000" stroke="#000000" points="188.95,-443.0502 193.4501,-453.0501 188.95,-448.0502 188.9501,-453.0502 188.9501,-453.0502 188.9501,-453.0502 188.95,-448.0502 184.4501,-453.0502 188.95,-443.0502 188.95,-443.0502"/>
</g>
<!-- A18&#45;&gt;A5 -->
<g id="edge23" class="edge">
<title>A18&#45;&gt;A5</title>
<path fill="none" stroke="#000000" d="M87.568,-406.9551C93.0476,-398.4441 99.6969,-388.1165 105.7455,-378.7219"/>
<polygon fill="#000000" stroke="#000000" points="111.3028,-370.0904 109.673,-380.9345 108.5961,-374.2944 105.8893,-378.4984 105.8893,-378.4984 105.8893,-378.4984 108.5961,-374.2944 102.1057,-376.0624 111.3028,-370.0904 111.3028,-370.0904"/>
</g>
<!-- A20 -->
<g id="node21" class="node">
<title>A20</title>
<polygon fill="#d3d3d3" stroke="#000000" stroke-width="4" points="175.95,-219.5 175.95,-223.5 211.95,-223.5 211.95,-219.5 175.95,-219.5"/>
<text text-anchor="middle" x="184.5889" y="-221.2" font-family="Helvetica,sans-Serif" font-size="1.00" fill="#000000"> </text>
<polyline fill="none" stroke="#000000" stroke-width="4" points="193.2279,-219.5 193.2279,-223.5 "/>
<text text-anchor="middle" x="202.3669" y="-221.2" font-family="Helvetica,sans-Serif" font-size="1.00" fill="#000000"> </text>
</g>
<!-- A19&#45;&gt;A20 -->
<g id="edge25" class="edge">
<title>A19&#45;&gt;A20:n</title>
<path fill="none" stroke="#000000" d="M180.95,-260.5956C182.4188,-252.6939 183.8875,-243.1121 184.5641,-233.6442"/>
<polygon fill="#000000" stroke="#000000" points="184.95,-223.5 189.0666,-233.6639 184.7599,-228.4964 184.5698,-233.4928 184.5698,-233.4928 184.5698,-233.4928 184.7599,-228.4964 180.0731,-233.3217 184.95,-223.5 184.95,-223.5"/>
</g>
<!-- A19&#45;&gt;A20 -->
<g id="edge31" class="edge">
<title>A19&#45;&gt;A20:n</title>
<path fill="none" stroke="#000000" d="M189.7429,-260.9008C194.3561,-253.0764 198.916,-243.4406 200.9076,-233.4943"/>
<polygon fill="#000000" stroke="#000000" points="201.95,-223.5 205.3883,-233.9129 201.4313,-228.473 200.9126,-233.446 200.9126,-233.446 200.9126,-233.446 201.4313,-228.473 196.4368,-232.9792 201.95,-223.5 201.95,-223.5"/>
</g>
<!-- A21 -->
<g id="node22" class="node">
<title>A21</title>
<path fill="none" stroke="#000000" d="M271.871,-182C271.871,-182 164.029,-182 164.029,-182 158.029,-182 152.029,-176 152.029,-170 152.029,-170 152.029,-158 152.029,-158 152.029,-152 158.029,-146 164.029,-146 164.029,-146 271.871,-146 271.871,-146 277.871,-146 283.871,-152 283.871,-158 283.871,-158 283.871,-170 283.871,-170 283.871,-176 277.871,-182 271.871,-182"/>
<text text-anchor="middle" x="217.95" y="-161" font-family="Helvetica,sans-Serif" font-size="10.00" fill="#000000">update_check_run_trail</text>
</g>
<!-- A20&#45;&gt;A21 -->
<g id="edge26" class="edge">
<title>A20&#45;&gt;A21</title>
<path fill="none" stroke="#000000" d="M194.9813,-219.0293C197.0076,-214.1746 201.7153,-202.8957 206.3446,-191.8046"/>
<polygon fill="#000000" stroke="#000000" points="210.3233,-182.2724 210.6241,-193.2341 208.3973,-186.8866 206.4714,-191.5008 206.4714,-191.5008 206.4714,-191.5008 208.3973,-186.8866 202.3186,-189.7674 210.3233,-182.2724 210.3233,-182.2724"/>
</g>
<!-- A21&#45;&gt;A9 -->
<g id="edge27" class="edge">
<title>A21&#45;&gt;A9</title>
<path fill="none" stroke="#000000" d="M217.95,-145.9551C217.95,-137.8828 217.95,-128.1764 217.95,-119.1817"/>
<polygon fill="#000000" stroke="#000000" points="217.95,-109.0904 222.4501,-119.0903 217.95,-114.0904 217.9501,-119.0904 217.9501,-119.0904 217.9501,-119.0904 217.95,-114.0904 213.4501,-119.0904 217.95,-109.0904 217.95,-109.0904"/>
</g>
<!-- A22&#45;&gt;A5 -->
<g id="edge29" class="edge">
<title>A22&#45;&gt;A5</title>
<path fill="none" stroke="#000000" d="M172.6354,-406.9551C164.6233,-398.0932 154.8304,-387.2616 146.0632,-377.5646"/>
<polygon fill="#000000" stroke="#000000" points="139.3057,-370.0904 149.3502,-374.4902 142.6589,-373.7993 146.0122,-377.5081 146.0122,-377.5081 146.0122,-377.5081 142.6589,-373.7993 142.6742,-380.5261 139.3057,-370.0904 139.3057,-370.0904"/>
</g>
</g>
</svg>
